<svg width="56" height="56" viewBox="0 0 56 56" fill="none" xmlns="http://www.w3.org/2000/svg">
<g id="ktalk-icon 1" clip-path="url(#clip0_2645_25906)">
<g id="surface1">
<path id="Vector" d="M7.875 2.09885C1.05236 5.94767 0.177366 9.27621 0 26.7762C0 53.375 2.27618 55.8227 26.7762 56C53.375 56 55.8226 53.7238 56 29.2238C56 12.0727 54.5988 6.47385 49.1774 2.27621C45.5 -0.526152 12.5988 -0.697605 7.875 2.09885ZM21 17.5C21 26.5988 23.625 26.5988 31.6774 17.3227C35.5262 12.7762 39.0262 10.3227 40.9476 10.6774C43.5726 11.375 43.2238 12.4274 38.1512 19.25L32.0262 26.9477L37.9738 35.1774C44.625 44.625 44.9738 45.5 40.5988 45.5C38.6774 45.5 34.8226 42 31.6774 37.625C28.5262 33.25 24.8488 29.75 23.4476 29.75C21.6976 29.75 21 32.0262 21 37.625C21 44.2762 20.4738 45.5 17.5 45.5C14.3488 45.5 14 44.2762 14 31.5C14 20.125 13.4738 17.5 11.375 17.5C9.09882 17.5 9.09882 16.9738 10.8488 14C12.0726 12.0727 14.875 10.5 16.9738 10.5C20.4738 10.5 21 11.375 21 17.5Z" fill="black"/>
</g>
</g>
<defs>
<clipPath id="clip0_2645_25906">
<rect width="56" height="56" fill="white"/>
</clipPath>
</defs>
</svg>
