<svg width="28" height="24" viewBox="0 0 28 24" fill="none" xmlns="http://www.w3.org/2000/svg">
<path d="M5 9.51783C5 7.04202 6.87714 5.03422 9.19143 5.03422C9.545 3.27198 10.805 1.83474 12.4983 1.26273C14.1916 0.689282 16.0597 1.06918 17.3981 2.25941C18.7379 3.44676 19.3447 5.26389 18.9911 7.02613H19.8821C20.7071 7.02422 21.499 7.39046 22.0837 8.04435C22.6684 8.69824 22.998 9.58622 23 10.5131C22.998 11.4399 22.6684 12.3279 22.0837 12.9818C21.499 13.6357 20.7071 14.0019 19.8821 14H9.19143C6.87714 14 5 11.9922 5 9.51783Z" stroke="white" stroke-width="2" stroke-linecap="round" stroke-linejoin="round"/>
<path d="M14 14L14 19" stroke="white" stroke-width="2" stroke-linecap="round" stroke-linejoin="round"/>
<path d="M13 21C13 21.2652 13.1054 21.5196 13.2929 21.7071C13.4804 21.8946 13.7348 22 14 22C14.2652 22 14.5196 21.8946 14.7071 21.7071C14.8946 21.5196 15 21.2652 15 21C15 20.7348 14.8946 20.4804 14.7071 20.2929C14.5196 20.1054 14.2652 20 14 20C13.7348 20 13.4804 20.1054 13.2929 20.2929C13.1054 20.4804 13 20.7348 13 21Z" stroke="white" stroke-linecap="round" stroke-linejoin="round"/>
<path d="M16 21H27" stroke="white" stroke-width="2" stroke-linecap="round" stroke-linejoin="round"/>
<path d="M1 21H12" stroke="white" stroke-width="2" stroke-linecap="round" stroke-linejoin="round"/>
</svg>
