<svg width="24" height="24" viewBox="0 0 24 24" fill="none" xmlns="http://www.w3.org/2000/svg">
<path d="M21 10.8889H9.41L11.71 8.34444C11.8032 8.24085 11.8772 8.11786 11.9277 7.9825C11.9781 7.84714 12.0041 7.70207 12.0041 7.55556C12.0041 7.40905 11.9781 7.26397 11.9277 7.12861C11.8772 6.99325 11.8032 6.87027 11.71 6.76667C11.6168 6.66307 11.5061 6.58089 11.3842 6.52482C11.2624 6.46876 11.1319 6.4399 11 6.4399C10.8681 6.4399 10.7376 6.46876 10.6158 6.52482C10.4939 6.58089 10.3832 6.66307 10.29 6.76667L6.29 11.2111C6.19896 11.3168 6.12759 11.4414 6.08 11.5778C5.97998 11.8483 5.97998 12.1517 6.08 12.4222C6.12759 12.5586 6.19896 12.6832 6.29 12.7889L10.29 17.2333C10.383 17.3375 10.4936 17.4201 10.6154 17.4765C10.7373 17.533 10.868 17.562 11 17.562C11.132 17.562 11.2627 17.533 11.3846 17.4765C11.5064 17.4201 11.617 17.3375 11.71 17.2333C11.8037 17.13 11.8781 17.0072 11.9289 16.8718C11.9797 16.7364 12.0058 16.5911 12.0058 16.4444C12.0058 16.2978 11.9797 16.1525 11.9289 16.0171C11.8781 15.8817 11.8037 15.7588 11.71 15.6556L9.41 13.1111H21C21.2652 13.1111 21.5196 12.994 21.7071 12.7857C21.8946 12.5773 22 12.2947 22 12C22 11.7053 21.8946 11.4227 21.7071 11.2143C21.5196 11.006 21.2652 10.8889 21 10.8889ZM3 2C2.73478 2 2.48043 2.11706 2.29289 2.32544C2.10536 2.53381 2 2.81643 2 3.11111V20.8889C2 21.1836 2.10536 21.4662 2.29289 21.6746C2.48043 21.8829 2.73478 22 3 22C3.26522 22 3.51957 21.8829 3.70711 21.6746C3.89464 21.4662 4 21.1836 4 20.8889V3.11111C4 2.81643 3.89464 2.53381 3.70711 2.32544C3.51957 2.11706 3.26522 2 3 2Z" fill="white"/>
</svg>
