<svg width="24" height="24" viewBox="0 0 24 24" fill="none" xmlns="http://www.w3.org/2000/svg">
<path d="M21 8.981C20.9883 8.87535 20.9657 8.77128 20.9325 8.6705V8.567C20.8784 8.44876 20.8063 8.34006 20.7188 8.245L13.9688 1.345C13.8758 1.25555 13.7694 1.18179 13.6538 1.1265H13.5525L13.1925 1H6.375C5.47989 1 4.62145 1.36348 3.98851 2.01048C3.35558 2.65748 3 3.535 3 4.45V20.55C3 21.465 3.35558 22.3425 3.98851 22.9895C4.62145 23.6365 5.47989 24 6.375 24H17.625C18.5201 24 19.3786 23.6365 20.0115 22.9895C20.6444 22.3425 21 21.465 21 20.55V9.05C21 9.05 21 9.05 21 8.981ZM14.25 4.9215L17.1637 7.9H14.25V4.9215ZM18.75 20.55C18.75 20.855 18.6315 21.1475 18.4205 21.3632C18.2095 21.5788 17.9234 21.7 17.625 21.7H6.375C6.07663 21.7 5.79048 21.5788 5.5795 21.3632C5.36853 21.1475 5.25 20.855 5.25 20.55V4.45C5.25 4.145 5.36853 3.85249 5.5795 3.63683C5.79048 3.42116 6.07663 3.3 6.375 3.3H12V9.05C12 9.355 12.1185 9.64751 12.3295 9.86317C12.5405 10.0788 12.8266 10.2 13.125 10.2H18.75V20.55Z" fill="white"/>
</svg>
