<svg width="24" height="24" viewBox="0 0 24 24" fill="none" xmlns="http://www.w3.org/2000/svg">
<g id="chart">
<path id="Vector" d="M11.5 5.6C11.195 5.6 10.9025 5.72116 10.6868 5.93683C10.4712 6.15249 10.35 6.445 10.35 6.75V18.25C10.35 18.555 10.4712 18.8475 10.6868 19.0632C10.9025 19.2788 11.195 19.4 11.5 19.4C11.805 19.4 12.0975 19.2788 12.3132 19.0632C12.5288 18.8475 12.65 18.555 12.65 18.25V6.75C12.65 6.445 12.5288 6.15249 12.3132 5.93683C12.0975 5.72116 11.805 5.6 11.5 5.6ZM5.75 12.5C5.445 12.5 5.15249 12.6212 4.93683 12.8368C4.72116 13.0525 4.6 13.345 4.6 13.65V18.25C4.6 18.555 4.72116 18.8475 4.93683 19.0632C5.15249 19.2788 5.445 19.4 5.75 19.4C6.055 19.4 6.34751 19.2788 6.56317 19.0632C6.77884 18.8475 6.9 18.555 6.9 18.25V13.65C6.9 13.345 6.77884 13.0525 6.56317 12.8368C6.34751 12.6212 6.055 12.5 5.75 12.5ZM17.25 10.2C16.945 10.2 16.6525 10.3212 16.4368 10.5368C16.2212 10.7525 16.1 11.045 16.1 11.35V18.25C16.1 18.555 16.2212 18.8475 16.4368 19.0632C16.6525 19.2788 16.945 19.4 17.25 19.4C17.555 19.4 17.8475 19.2788 18.0632 19.0632C18.2788 18.8475 18.4 18.555 18.4 18.25V11.35C18.4 11.045 18.2788 10.7525 18.0632 10.5368C17.8475 10.3212 17.555 10.2 17.25 10.2ZM19.55 1H3.45C2.535 1 1.65748 1.36348 1.01048 2.01048C0.363481 2.65748 0 3.535 0 4.45V20.55C0 21.465 0.363481 22.3425 1.01048 22.9895C1.65748 23.6365 2.535 24 3.45 24H19.55C20.465 24 21.3425 23.6365 21.9895 22.9895C22.6365 22.3425 23 21.465 23 20.55V4.45C23 3.535 22.6365 2.65748 21.9895 2.01048C21.3425 1.36348 20.465 1 19.55 1ZM20.7 20.55C20.7 20.855 20.5788 21.1475 20.3632 21.3632C20.1475 21.5788 19.855 21.7 19.55 21.7H3.45C3.145 21.7 2.85249 21.5788 2.63683 21.3632C2.42116 21.1475 2.3 20.855 2.3 20.55V4.45C2.3 4.145 2.42116 3.85249 2.63683 3.63683C2.85249 3.42116 3.145 3.3 3.45 3.3H19.55C19.855 3.3 20.1475 3.42116 20.3632 3.63683C20.5788 3.85249 20.7 4.145 20.7 4.45V20.55Z" fill="white"/>
</g>
</svg>
