<svg width="24" height="24" viewBox="0 0 24 24" fill="none" xmlns="http://www.w3.org/2000/svg">
<path d="M5 3V17M5 17C4.60444 17 4.21776 17.1173 3.88886 17.3371C3.55996 17.5568 3.30362 17.8692 3.15224 18.2346C3.00087 18.6001 2.96126 19.0022 3.03843 19.3902C3.1156 19.7781 3.30608 20.1345 3.58579 20.4142C3.86549 20.6939 4.22186 20.8844 4.60982 20.9616C4.99778 21.0387 5.39992 20.9991 5.76537 20.8478C6.13082 20.6964 6.44318 20.44 6.66294 20.1111C6.8827 19.7822 7 19.3956 7 19C7 18.4696 6.78929 17.9609 6.41421 17.5858C6.03914 17.2107 5.53043 17 5 17ZM12 7V21M19 14V21M19 10V3M19 10C18.6044 10 18.2178 10.1173 17.8889 10.3371C17.56 10.5568 17.3036 10.8692 17.1522 11.2346C17.0009 11.6001 16.9613 12.0022 17.0384 12.3902C17.1156 12.7781 17.3061 13.1345 17.5858 13.4142C17.8655 13.6939 18.2219 13.8844 18.6098 13.9616C18.9978 14.0387 19.3999 13.9991 19.7654 13.8478C20.1308 13.6964 20.4432 13.44 20.6629 13.1111C20.8827 12.7822 21 12.3956 21 12C21 11.4696 20.7893 10.9609 20.4142 10.5858C20.0391 10.2107 19.5304 10 19 10ZM12 3C11.6044 3 11.2178 3.1173 10.8889 3.33706C10.56 3.55682 10.3036 3.86918 10.1522 4.23463C10.0009 4.60009 9.96126 5.00222 10.0384 5.39018C10.1156 5.77814 10.3061 6.13451 10.5858 6.41421C10.8655 6.69392 11.2219 6.8844 11.6098 6.96157C11.9978 7.03874 12.3999 6.99913 12.7654 6.84776C13.1308 6.69638 13.4432 6.44004 13.6629 6.11114C13.8827 5.78224 14 5.39556 14 5C14 4.46957 13.7893 3.96086 13.4142 3.58579C13.0391 3.21071 12.5304 3 12 3Z" stroke="white" stroke-width="2" stroke-linecap="round" stroke-linejoin="round"/>
</svg>
