<svg width="16" height="16" viewBox="0 0 16 16" fill="none" xmlns="http://www.w3.org/2000/svg">
<g id="Login-Icons">
<path id="Vector" d="M8 2.66797C4.36364 2.66797 1.25818 4.92979 0 8.12251C1.25818 11.3152 4.36364 13.5771 8 13.5771C11.6364 13.5771 14.7418 11.3152 16 8.12251C14.7418 4.92979 11.6364 2.66797 8 2.66797ZM8 11.7589C5.99273 11.7589 4.36364 10.1298 4.36364 8.12251C4.36364 6.11524 5.99273 4.48615 8 4.48615C10.0073 4.48615 11.6364 6.11524 11.6364 8.12251C11.6364 10.1298 10.0073 11.7589 8 11.7589ZM8 5.9407C6.79273 5.9407 5.81818 6.91524 5.81818 8.12251C5.81818 9.32979 6.79273 10.3043 8 10.3043C9.20727 10.3043 10.1818 9.32979 10.1818 8.12251C10.1818 6.91524 9.20727 5.9407 8 5.9407Z" fill="#C4C4D1"/>
<path id="Line 1" d="M1.29297 15.293L15.293 1.29297" stroke="#C4C4D1" stroke-width="1.2" stroke-linecap="round"/>
</g>
</svg>
